<?xml version="1.0" standalone="no"?><!DOCTYPE svg PUBLIC "-//W3C//DTD SVG 1.1//EN" "http://www.w3.org/Graphics/SVG/1.1/DTD/svg11.dtd"><svg t="1760870703602" class="icon" viewBox="0 0 1024 1024" version="1.1" xmlns="http://www.w3.org/2000/svg" p-id="4565" xmlns:xlink="http://www.w3.org/1999/xlink" width="20" height="20"><path d="M514.816 1000.746667q-77.013333-71.466667-73.813333-152.448h147.626666q3.2 80.981333-73.813333 152.448z m0-896.426667c-64.981333 85.76-191.146667 280.704-191.146667 500.522667 0 63.616 11.946667 116.906667 23.978667 154.453333h334.293333c15.914667-49.92 23.978667-102.016 23.978667-154.453333 0-219.818667-126.208-414.805333-191.146667-500.565334z m242.304 500.522667q0 144.810667-55.509333 240.426666l-59.349334-34.730666H387.370667l-59.392 34.730666q-55.466667-95.573333-55.466667-240.426666C272.469333 285.866667 514.730667 23.381333 514.773333 23.296c0.085333 0.085333 242.304 262.528 242.304 581.546667z m33.536 95.061333c0 55.509333-24.661333 115.882667-41.642667 141.354667h117.674667l-13.056-80-62.976-61.354667zM175.957333 761.258667l-13.056 80.042666h117.674667c-17.024-25.472-41.642667-85.802667-41.642667-141.354666l-62.976 61.312z m292.693334-230.997334a11.392 11.392 0 1 0-2.517334 22.656 11.392 11.392 0 0 0 2.517334-22.613333z m36.48 0a11.392 11.392 0 1 0-2.56 22.656 11.392 11.392 0 0 0 2.56-22.613333z m36.437333 0a11.392 11.392 0 1 0-2.56 22.656 11.392 11.392 0 0 0 2.56-22.613333zM666.026667 674.133333a58.88 58.88 0 1 1-109.952-29.269333l-14.677334-20.053333c-31.744 13.952-68.693333 8.490667-95.104-14.08l-16.384 14.293333a35.2 35.2 0 1 1-22.4-25.642667l17.450667-15.189333a90.368 90.368 0 0 1 7.893333-97.28l-18.346666-19.968c-1.322667 0.170667-2.645333 0.426667-4.010667 0.426667a29.952 29.952 0 1 1 29.184-23.424l18.56 20.181333a90.24 90.24 0 0 1 91.477333-1.450667l15.701334-15.701333a46.592 46.592 0 1 1 28.885333 28.928l-14.378667 14.378667c23.338667 33.706667 20.992 78.933333-5.632 110.122666l13.397334 18.346667a58.922667 58.922667 0 0 1 78.378666 55.466667V674.133333z m-160.938667-61.013333a71.466667 71.466667 0 1 0 2.944-142.890667 71.466667 71.466667 0 0 0-2.986667 142.890667z" fill="#DA7300" p-id="4566"></path></svg>